<?xml version="1.0" encoding="UTF-8"?>
<!DOCTYPE svg PUBLIC "-//W3C//DTD SVG 1.1//EN" "http://www.w3.org/Graphics/SVG/1.1/DTD/svg11.dtd">
<!-- Creator: CorelDRAW X7 -->
<svg xmlns="http://www.w3.org/2000/svg" xml:space="preserve" width="1457px" height="613px" version="1.1" shape-rendering="geometricPrecision" text-rendering="geometricPrecision" image-rendering="optimizeQuality" fill-rule="evenodd" clip-rule="evenodd"
viewBox="0 0 1403 590"
 xmlns:xlink="http://www.w3.org/1999/xlink">
 <g id="Layer_x0020_1">
  <path fill="#81C784" d="M250 43l0 0c44,124 100,219 165,270l0 0 -415 277 90 -197 160 -350z"/>
 </g>
 <g id="Layer_x0020_1_0">
  <path fill="#43A047" d="M1267 67l-848 0c54,41 89,106 89,180 0,76 -38,143 -95,184l990 0 -136 -66 0 -298z"/>
  <path fill="#81C784" d="M1267 365l136 66 0 -364 -136 -67 0 365 0 0z"/>
  <path fill="#81C784" d="M508 247c0,125 -102,226 -227,226 -125,0 -227,-101 -227,-226 0,-126 102,-227 227,-227 125,0 227,101 227,227z"/>
 </g>
</svg>
